Title                            : Unknown
Year                             : 2011
Genre                            : Drama | Mystery | Thriller
iMDB URL                         : http://www.imdb.com/title/tt1401152/

Complete name                    : Unknown.2011.BRRIP.720P.H264-ZEKTORM.mp4
Format                           : MPEG-4
Format profile                   : Base Media
Codec ID                         : isom
File size                        : 2.44 GiB
Duration                         : 1h 53mn
Overall bit rate                 : 3088 Kbps
Subtitles                        : English (Format: srt)

Video
ID                               : 1
Format                           : AVC
Format/Info                      : Advanced Video Codec
Format profile                   : High@L4.0
Format settings, CABAC           : Yes
Format settings, ReFrames        : 12 frames
Codec ID                         : avc1
Codec ID/Info                    : Advanced Video Coding
Duration                         : 1h 53mn
Bit rate mode                    : Variable
Bit rate                         : 2640 Kbps
Width                            : 1280 pixels
Height                           : 528 pixels
Display aspect ratio             : 2.424
Frame rate mode                  : Constant
Frame rate                       : 23.976 fps
Resolution                       : 24 bits
Colorimetry                      : 4:2:0
Scan type                        : Progressive
Bits/(Pixel*Frame)               : 0.163
Stream size                      : 2.09 GiB (85%)
Title                            : Video
Writing library                  : x264

Audio
ID                               : 2
Format                           : AAC
Format/Info                      : Advanced Audio Codec
Format version                   : Version 4
Format profile                   : LC
Format settings, SBR             : No
Codec ID                         : 40
Duration                         : 1h 53mn
Bit rate mode                    : Variable
Bit rate                         : 444 Kbps
Maximum bit rate                 : 531 Kbps
Channel(s)                       : 6 channels
Channel positions                : Front: L C R, Rear: L R, LFE
Sampling rate                    : 48.0 KHz
Resolution                       : 16 bits
Stream size                      : 359 MiB (14%)
Language                         : English


Screenshots:

[img]http://img21.imageshack.us/img21/6972/snapu1.png[/img]

[img]http://img833.imageshack.us/img833/2022/snapu2.png[/img]

[img]http://img850.imageshack.us/img850/3117/snapu3.png[/img]

[img]http://img228.imageshack.us/img228/8902/snapu4.png[/img]

[img]http://img841.imageshack.us/img841/3310/snapu5.png[/img]
